# xmcd
#
# Track frame offsets: 
#        150
#        3561
#        18917
#        29026
#        48933
#        54878
#        72582
#        82801
#        86364
#        100052
#        109996
#        127871
#        139621
#        156589
#        175366
#        191362
#        202811
#        219992
#        236520
#        251413
#        260528
#        279209
#        293475
#        307495
#        318607
#
# Disc length: 4518 seconds
#
# Revision: 0
# Processed by: cddbd v1.5.2PL0 Copyright (c) Steve Scherf et al.
# Submitted via: ExactAudioCopyFreeDBPlugin 1.0
#
DISCID=5911a419
DTITLE=Kanye West - Akademiks: Jeanius Level Musik
DYEAR=2002
DGENRE=Hip-Hop
TTITLE0=Intro
TTITLE1=Jay-Z - Excuse Me Miss (Remix) (Feat. Kanye West)
TTITLE2=Kanye West and Murphy Lee of St. Lunatics - Drop Dead Gorgeous
TTITLE3=Kanye West, Mos Def, Freeway and Harlem Boys Choir - Two Words
TTITLE4=A Million Freestyle
TTITLE5=Fabolous - My Life (Feat. Mary J. Blige)
TTITLE6=Dame Dash and Kanye West - Champions (Snippet)
TTITLE7=Jesus Walks (Snippet)
TTITLE8=Jay-Z - The Bounce (Feat. Kanye West)
TTITLE9=We Can't Tell Freestyle
TTITLE10=Freeway - Turn Out The Lights (Freewest) (Feat. Kanye West)
TTITLE11=Came Back For You Freestyle
TTITLE12=Lil' Kim - Came Back For You
TTITLE13=Kanye West and Consequence - The Good, The Bad, The Ugly
TTITLE14=Kanye West and Consequence - Electric Relaxation Freestyle
TTITLE15=John Legend - I Use To Love U
TTITLE16=Talib Kweli - Get By
TTITLE17=GLC of The GoGetters - Soul Of A Hustler
TTITLE18=Scarface - In Cold Blood
TTITLE19=50 Cent - In Cold Blood Freestyle
TTITLE20=Trina - B R Right (Feat. Ludacris)
TTITLE21=Jay-Z and Twista - Poppin' Tags (Snippet)
TTITLE22=GLC of The GoGetters - Hood Celebrity
TTITLE23=About An Angel (Got Nowhere) (Feat. John Legend)
TTITLE24=Through The Wire
EXTD=
EXTT0=
EXTT1=
EXTT2=
EXTT3=
EXTT4=
EXTT5=
EXTT6=
EXTT7=
EXTT8=
EXTT9=
EXTT10=
EXTT11=
EXTT12=
EXTT13=
EXTT14=
EXTT15=
EXTT16=
EXTT17=
EXTT18=
EXTT19=
EXTT20=
EXTT21=
EXTT22=
EXTT23=
EXTT24=
PLAYORDER=
